<svg width="24" height="36" viewBox="0 0 10 24" fill="none" xmlns="http://www.w3.org/2000/svg">
  <path 
    d="M7.72727 15.2727C8.98227 15.2727 10 14.0515 10 12.5455V12H9.54545C8.79227 12 8.12955 12.4451 7.71591 13.122C7.7 12.6011 7.66136 12.084 7.59773 11.5718L7.67727 11.5462C8.88955 11.1562 9.60909 9.66109 9.28455 8.20582L9.16682 7.67891L8.72773 7.82018C7.99909 8.05473 7.45409 8.69127 7.20136 9.47564C7.07364 8.97818 6.925 8.48945 6.75318 8.01218L6.82545 7.962C7.91227 7.20873 8.285 5.54073 7.65727 4.23655L7.43 3.76418L7.03636 4.03691C6.38364 4.48909 5.995 5.27236 5.91955 6.10745C5.69045 5.66782 5.44182 5.24182 5.17273 4.83327L5.23 4.76455C6.11773 3.69927 6.11773 1.97291 5.23 0.907636L4.90864 0.522L4.58727 0.907636C4.05591 1.54527 3.84955 2.41964 3.95455 3.24764C3.95136 3.24436 3.94864 3.24055 3.94591 3.23727L3.62955 3.64636C3.55409 1.61836 2.16364 0 0.454545 0H0C0 2.10873 1.42455 3.81818 3.18182 3.81818H3.49727L3.34955 4.00909C2.65182 3.87164 1.91136 4.11982 1.37318 4.76564L1.05182 5.15127L1.37318 5.53691C2.23955 6.57655 3.62773 6.59345 4.51955 5.60345C4.73227 5.93291 4.93318 6.27273 5.11818 6.62345C4.485 6.30327 3.74136 6.32018 3.10045 6.76473L2.70682 7.03745L2.93409 7.50982C3.54636 8.78236 4.88182 9.22964 5.95591 8.55273C6.09046 8.93509 6.21091 9.32455 6.31454 9.72055C5.77227 9.216 5.05136 9.00273 4.33727 9.23182L3.89818 9.37309L4.01591 9.9C4.33273 11.3198 5.52727 12.1675 6.71136 11.8456C6.75909 12.2569 6.79136 12.6709 6.80591 13.0882C6.39136 12.4309 5.74 12 5 12H4.54545V12.5455C4.54545 14.0171 5.51864 15.2078 6.73364 15.2624C6.69091 15.6802 6.63136 16.0931 6.55636 16.5C6.29864 15.732 5.76091 15.1096 5.04318 14.8789L4.60409 14.7376L4.48636 15.2645C4.16864 16.6876 4.85364 18.1429 6.01864 18.5711C5.88682 18.9605 5.73864 19.3407 5.57591 19.7127C5.49318 18.8896 5.10773 18.12 4.46364 17.6738L4.07 17.4011L3.84273 17.8735C3.22954 19.1476 3.57591 20.7633 4.60591 21.5395C4.02818 22.4493 3.34818 23.2784 2.56909 24H3.97455C4.5 23.4136 4.97273 22.7749 5.39455 22.098L5.46182 22.1444C6.54864 22.8976 7.93864 22.4504 8.56636 21.1462L8.79364 20.6738L8.4 20.4011C7.75182 19.9522 6.99818 19.938 6.36045 20.2696C6.56182 19.8136 6.74227 19.3451 6.90045 18.8645L6.97091 18.8875C8.18318 19.2775 9.42955 18.414 9.75455 16.9587L9.87227 16.4318L9.43318 16.2905C8.70864 16.0576 7.97591 16.2791 7.43091 16.8005C7.52545 16.2993 7.59818 15.7893 7.64727 15.2722H7.72727V15.2727Z" 
    fill="currentColor"
  />
</svg> 